<?xml version="1.0" encoding="UTF-8"?>
<!DOCTYPE svg
PUBLIC "-//W3C//DTD SVG 1.1//EN"
       "http://www.w3.org/Graphics/SVG/1.1/DTD/svg11.dtd">
<svg viewBox="29 -1 1187 614" width="1158px" height="615px" xmlns="http://www.w3.org/2000/svg" version="1.1">
   <line x1="512" y1="256" x2="502" y2="256" style="stroke:#cb0;stroke-width:1;"/>
   <line x1="481" y1="87" x2="491" y2="87" style="stroke:#cb0;stroke-width:1;"/>
   <line x1="502" y1="256" x2="481" y2="87" style="stroke:#cb0;stroke-width:1;"/>
   <line x1="504.5" y1="256" x2="508.03553390593" y2="259.53553390593" style="stroke:#cb0;stroke-width:2;"/>
   <line x1="504.5" y1="256" x2="508.03553390593" y2="252.46446609407" style="stroke:#cb0;stroke-width:2;"/>
   <line x1="486" y1="87" x2="482.46446609407" y2="90.535533905933" style="stroke:#cb0;stroke-width:2;"/>
   <line x1="486" y1="87" x2="482.46446609407" y2="83.464466094067" style="stroke:#cb0;stroke-width:2;"/>
   <line x1="512" y1="396" x2="502" y2="396" style="stroke:#0b0;stroke-width:1;"/>
   <line x1="366" y1="97" x2="356" y2="97" style="stroke:#0b0;stroke-width:1;"/>
   <line x1="502" y1="396" x2="366" y2="97" style="stroke:#0b0;stroke-width:1;"/>
   <line x1="504.5" y1="396" x2="508.03553390593" y2="399.53553390593" style="stroke:#0b0;stroke-width:2;"/>
   <line x1="504.5" y1="396" x2="508.03553390593" y2="392.46446609407" style="stroke:#0b0;stroke-width:2;"/>
   <line x1="361" y1="97" x2="364.53553390593" y2="100.53553390593" style="stroke:#0b0;stroke-width:2;"/>
   <line x1="361" y1="97" x2="364.53553390593" y2="93.464466094067" style="stroke:#0b0;stroke-width:2;"/>
   <line x1="633" y1="276" x2="643" y2="276" style="stroke:#cb0;stroke-width:1;"/>
   <line x1="780" y1="84" x2="790" y2="84" style="stroke:#cb0;stroke-width:1;"/>
   <line x1="643" y1="276" x2="780" y2="84" style="stroke:#cb0;stroke-width:1;"/>
   <line x1="640.5" y1="276" x2="636.96446609407" y2="279.53553390593" style="stroke:#cb0;stroke-width:2;"/>
   <line x1="640.5" y1="276" x2="636.96446609407" y2="272.46446609407" style="stroke:#cb0;stroke-width:2;"/>
   <line x1="785" y1="84" x2="781.46446609407" y2="87.535533905933" style="stroke:#cb0;stroke-width:2;"/>
   <line x1="785" y1="84" x2="781.46446609407" y2="80.464466094067" style="stroke:#cb0;stroke-width:2;"/>
   <line x1="512" y1="296" x2="502" y2="296" style="stroke:#cb0;stroke-width:1;"/>
   <line x1="376" y1="354" x2="366" y2="354" style="stroke:#cb0;stroke-width:1;"/>
   <line x1="502" y1="296" x2="376" y2="354" style="stroke:#cb0;stroke-width:1;"/>
   <line x1="504.5" y1="296" x2="508.03553390593" y2="299.53553390593" style="stroke:#cb0;stroke-width:2;"/>
   <line x1="504.5" y1="296" x2="508.03553390593" y2="292.46446609407" style="stroke:#cb0;stroke-width:2;"/>
   <line x1="371" y1="354" x2="374.53553390593" y2="357.53553390593" style="stroke:#cb0;stroke-width:2;"/>
   <line x1="371" y1="354" x2="374.53553390593" y2="350.46446609407" style="stroke:#cb0;stroke-width:2;"/>
   <line x1="633" y1="316" x2="643" y2="316" style="stroke:#b0b;stroke-width:1;"/>
   <line x1="800" y1="366" x2="810" y2="366" style="stroke:#b0b;stroke-width:1;"/>
   <line x1="643" y1="316" x2="800" y2="366" style="stroke:#b0b;stroke-width:1;"/>
   <line x1="640.5" y1="316" x2="636.96446609407" y2="319.53553390593" style="stroke:#b0b;stroke-width:2;"/>
   <line x1="640.5" y1="316" x2="636.96446609407" y2="312.46446609407" style="stroke:#b0b;stroke-width:2;"/>
   <line x1="805" y1="366" x2="801.46446609407" y2="369.53553390593" style="stroke:#b0b;stroke-width:2;"/>
   <line x1="805" y1="366" x2="801.46446609407" y2="362.46446609407" style="stroke:#b0b;stroke-width:2;"/>
   <line x1="512" y1="296" x2="502" y2="296" style="stroke:#0bf;stroke-width:1;"/>
   <line x1="376" y1="354" x2="366" y2="354" style="stroke:#0bf;stroke-width:1;"/>
   <line x1="502" y1="296" x2="376" y2="354" style="stroke:#0bf;stroke-width:1;"/>
   <line x1="504.5" y1="296" x2="508.03553390593" y2="299.53553390593" style="stroke:#0bf;stroke-width:2;"/>
   <line x1="504.5" y1="296" x2="508.03553390593" y2="292.46446609407" style="stroke:#0bf;stroke-width:2;"/>
   <line x1="371" y1="354" x2="374.53553390593" y2="357.53553390593" style="stroke:#0bf;stroke-width:2;"/>
   <line x1="371" y1="354" x2="374.53553390593" y2="350.46446609407" style="stroke:#0bf;stroke-width:2;"/>
   <line x1="512" y1="396" x2="502" y2="396" style="stroke:#b0b;stroke-width:1;"/>
   <line x1="366" y1="97" x2="356" y2="97" style="stroke:#b0b;stroke-width:1;"/>
   <line x1="502" y1="396" x2="366" y2="97" style="stroke:#b0b;stroke-width:1;"/>
   <line x1="504.5" y1="396" x2="508.03553390593" y2="399.53553390593" style="stroke:#b0b;stroke-width:2;"/>
   <line x1="504.5" y1="396" x2="508.03553390593" y2="392.46446609407" style="stroke:#b0b;stroke-width:2;"/>
   <line x1="361" y1="97" x2="364.53553390593" y2="100.53553390593" style="stroke:#b0b;stroke-width:2;"/>
   <line x1="361" y1="97" x2="364.53553390593" y2="93.464466094067" style="stroke:#b0b;stroke-width:2;"/>
   <line x1="491" y1="47" x2="481" y2="47" style="stroke:#cb0;stroke-width:1;"/>
   <line x1="366" y1="57" x2="356" y2="57" style="stroke:#cb0;stroke-width:1;"/>
   <line x1="481" y1="47" x2="366" y2="57" style="stroke:#cb0;stroke-width:1;"/>
   <line x1="483.5" y1="47" x2="487.03553390593" y2="50.535533905933" style="stroke:#cb0;stroke-width:2;"/>
   <line x1="483.5" y1="47" x2="487.03553390593" y2="43.464466094067" style="stroke:#cb0;stroke-width:2;"/>
   <line x1="361" y1="57" x2="364.53553390593" y2="60.535533905933" style="stroke:#cb0;stroke-width:2;"/>
   <line x1="361" y1="57" x2="364.53553390593" y2="53.464466094067" style="stroke:#cb0;stroke-width:2;"/>
   <line x1="901" y1="144" x2="911" y2="144" style="stroke:#333;stroke-width:1;"/>
   <line x1="1079" y1="78" x2="1089" y2="78" style="stroke:#333;stroke-width:1;"/>
   <line x1="911" y1="144" x2="1079" y2="78" style="stroke:#333;stroke-width:1;"/>
   <line x1="908.5" y1="144" x2="904.96446609407" y2="147.53553390593" style="stroke:#333;stroke-width:2;"/>
   <line x1="908.5" y1="144" x2="904.96446609407" y2="140.46446609407" style="stroke:#333;stroke-width:2;"/>
   <line x1="1084" y1="78" x2="1080.4644660941" y2="81.535533905933" style="stroke:#333;stroke-width:2;"/>
   <line x1="1084" y1="78" x2="1080.4644660941" y2="74.464466094067" style="stroke:#333;stroke-width:2;"/>
   <line x1="790" y1="64" x2="780" y2="64" style="stroke:#bbb;stroke-width:1;"/>
   <line x1="376" y1="334" x2="366" y2="334" style="stroke:#bbb;stroke-width:1;"/>
   <line x1="780" y1="64" x2="376" y2="334" style="stroke:#bbb;stroke-width:1;"/>
   <line x1="782.5" y1="64" x2="786.03553390593" y2="67.535533905933" style="stroke:#bbb;stroke-width:2;"/>
   <line x1="782.5" y1="64" x2="786.03553390593" y2="60.464466094067" style="stroke:#bbb;stroke-width:2;"/>
   <line x1="371" y1="334" x2="374.53553390593" y2="337.53553390593" style="stroke:#bbb;stroke-width:2;"/>
   <line x1="371" y1="334" x2="374.53553390593" y2="330.46446609407" style="stroke:#bbb;stroke-width:2;"/>
   <line x1="819" y1="569" x2="809" y2="569" style="stroke:#333;stroke-width:1;"/>
   <line x1="643" y1="236" x2="633" y2="236" style="stroke:#333;stroke-width:1;"/>
   <line x1="809" y1="569" x2="643" y2="236" style="stroke:#333;stroke-width:1;"/>
   <line x1="811.5" y1="569" x2="815.03553390593" y2="572.53553390593" style="stroke:#333;stroke-width:2;"/>
   <line x1="811.5" y1="569" x2="815.03553390593" y2="565.46446609407" style="stroke:#333;stroke-width:2;"/>
   <line x1="638" y1="236" x2="641.53553390593" y2="239.53553390593" style="stroke:#333;stroke-width:2;"/>
   <line x1="638" y1="236" x2="641.53553390593" y2="232.46446609407" style="stroke:#333;stroke-width:2;"/>
   <line x1="819" y1="589" x2="809" y2="589" style="stroke:#cb0;stroke-width:1;"/>
   <line x1="622" y1="67" x2="612" y2="67" style="stroke:#cb0;stroke-width:1;"/>
   <line x1="809" y1="589" x2="622" y2="67" style="stroke:#cb0;stroke-width:1;"/>
   <line x1="811.5" y1="589" x2="815.03553390593" y2="592.53553390593" style="stroke:#cb0;stroke-width:2;"/>
   <line x1="811.5" y1="589" x2="815.03553390593" y2="585.46446609407" style="stroke:#cb0;stroke-width:2;"/>
   <line x1="617" y1="67" x2="620.53553390593" y2="70.535533905933" style="stroke:#cb0;stroke-width:2;"/>
   <line x1="617" y1="67" x2="620.53553390593" y2="63.464466094067" style="stroke:#cb0;stroke-width:2;"/>
   <line x1="267" y1="157" x2="257" y2="157" style="stroke:#bbb;stroke-width:1;"/>
   <line x1="160" y1="64" x2="150" y2="64" style="stroke:#bbb;stroke-width:1;"/>
   <line x1="257" y1="157" x2="160" y2="64" style="stroke:#bbb;stroke-width:1;"/>
   <line x1="259.5" y1="157" x2="263.03553390593" y2="160.53553390593" style="stroke:#bbb;stroke-width:2;"/>
   <line x1="259.5" y1="157" x2="263.03553390593" y2="153.46446609407" style="stroke:#bbb;stroke-width:2;"/>
   <line x1="155" y1="64" x2="158.53553390593" y2="67.535533905933" style="stroke:#bbb;stroke-width:2;"/>
   <line x1="155" y1="64" x2="158.53553390593" y2="60.464466094067" style="stroke:#bbb;stroke-width:2;"/>
   <line x1="1051" y1="206" x2="1041" y2="206" style="stroke:#0b0;stroke-width:1;"/>
   <line x1="622" y1="87" x2="612" y2="87" style="stroke:#0b0;stroke-width:1;"/>
   <line x1="1041" y1="206" x2="622" y2="87" style="stroke:#0b0;stroke-width:1;"/>
   <line x1="1043.5" y1="206" x2="1047.0355339059" y2="209.53553390593" style="stroke:#0b0;stroke-width:2;"/>
   <line x1="1043.5" y1="206" x2="1047.0355339059" y2="202.46446609407" style="stroke:#0b0;stroke-width:2;"/>
   <line x1="617" y1="87" x2="620.53553390593" y2="90.535533905933" style="stroke:#0b0;stroke-width:2;"/>
   <line x1="617" y1="87" x2="620.53553390593" y2="83.464466094067" style="stroke:#0b0;stroke-width:2;"/>
   <line x1="134" y1="175" x2="144" y2="175" style="stroke:#c00;stroke-width:1;"/>
   <line x1="266" y1="354" x2="276" y2="354" style="stroke:#c00;stroke-width:1;"/>
   <line x1="144" y1="175" x2="266" y2="354" style="stroke:#c00;stroke-width:1;"/>
   <line x1="141.5" y1="175" x2="137.96446609407" y2="178.53553390593" style="stroke:#c00;stroke-width:2;"/>
   <line x1="141.5" y1="175" x2="137.96446609407" y2="171.46446609407" style="stroke:#c00;stroke-width:2;"/>
   <line x1="271" y1="354" x2="267.46446609407" y2="357.53553390593" style="stroke:#c00;stroke-width:2;"/>
   <line x1="271" y1="354" x2="267.46446609407" y2="350.46446609407" style="stroke:#c00;stroke-width:2;"/>
   <line x1="44" y1="195" x2="34" y2="195" style="stroke:#bbb;stroke-width:1;"/>
   <line x1="34" y1="344" x2="44" y2="344" style="stroke:#bbb;stroke-width:1;"/>
   <line x1="34" y1="195" x2="34" y2="344" style="stroke:#bbb;stroke-width:1;"/>
   <line x1="36.5" y1="195" x2="40.035533905933" y2="198.53553390593" style="stroke:#bbb;stroke-width:2;"/>
   <line x1="36.5" y1="195" x2="40.035533905933" y2="191.46446609407" style="stroke:#bbb;stroke-width:2;"/>
   <line x1="39" y1="344" x2="35.464466094067" y2="347.53553390593" style="stroke:#bbb;stroke-width:2;"/>
   <line x1="39" y1="344" x2="35.464466094067" y2="340.46446609407" style="stroke:#bbb;stroke-width:2;"/>
   <line x1="810" y1="346" x2="800" y2="346" style="stroke:#0bf;stroke-width:1;"/>
   <line x1="643" y1="236" x2="633" y2="236" style="stroke:#0bf;stroke-width:1;"/>
   <line x1="800" y1="346" x2="643" y2="236" style="stroke:#0bf;stroke-width:1;"/>
   <line x1="802.5" y1="346" x2="806.03553390593" y2="349.53553390593" style="stroke:#0bf;stroke-width:2;"/>
   <line x1="802.5" y1="346" x2="806.03553390593" y2="342.46446609407" style="stroke:#0bf;stroke-width:2;"/>
   <line x1="638" y1="236" x2="641.53553390593" y2="239.53553390593" style="stroke:#0bf;stroke-width:2;"/>
   <line x1="638" y1="236" x2="641.53553390593" y2="232.46446609407" style="stroke:#0bf;stroke-width:2;"/>
   <rect width="121" height="20" x="512" y="206" style="fill:#007;stroke:black;"/>
   <text width="121" height="20" x="517" y="220" style="fill:#fff;" font-family="Arial" font-size="16px"> booking</text>
   <rect width="121" height="20" x="512" y="226" style="fill:#aea;stroke:black;"/>
   <text width="121" height="20" x="517" y="240" style="fill:black;" font-family="Arial" font-size="16px">booking_id</text>
   <rect width="121" height="20" x="512" y="246" style="fill:none;stroke:black;"/>
   <text width="121" height="20" x="517" y="260" style="fill:black;" font-family="Arial" font-size="16px">customer-name</text>
   <rect width="121" height="20" x="512" y="266" style="fill:none;stroke:black;"/>
   <text width="121" height="20" x="517" y="280" style="fill:black;" font-family="Arial" font-size="16px">movieTitle</text>
   <rect width="121" height="20" x="512" y="286" style="fill:none;stroke:black;"/>
   <text width="121" height="20" x="517" y="300" style="fill:black;" font-family="Arial" font-size="16px">theater-name</text>
   <rect width="121" height="20" x="512" y="306" style="fill:none;stroke:black;"/>
   <text width="121" height="20" x="517" y="320" style="fill:black;" font-family="Arial" font-size="16px">ticket-type</text>
   <rect width="121" height="20" x="512" y="326" style="fill:none;stroke:black;"/>
   <text width="121" height="20" x="517" y="340" style="fill:black;" font-family="Arial" font-size="16px">child-seats</text>
   <rect width="121" height="20" x="512" y="346" style="fill:none;stroke:black;"/>
   <text width="121" height="20" x="517" y="360" style="fill:black;" font-family="Arial" font-size="16px">showtime</text>
   <rect width="121" height="20" x="512" y="366" style="fill:none;stroke:black;"/>
   <text width="121" height="20" x="517" y="380" style="fill:black;" font-family="Arial" font-size="16px">showdate</text>
   <rect width="121" height="20" x="512" y="386" style="fill:none;stroke:black;"/>
   <text width="121" height="20" x="517" y="400" style="fill:black;" font-family="Arial" font-size="16px">email</text>
   <rect width="121" height="20" x="512" y="406" style="fill:none;stroke:black;"/>
   <text width="121" height="20" x="517" y="420" style="fill:black;" font-family="Arial" font-size="16px">adult-seats</text>
   <rect width="121" height="20" x="512" y="426" style="fill:none;stroke:black;"/>
   <text width="121" height="20" x="517" y="440" style="fill:black;" font-family="Arial" font-size="16px">status</text>
   <rect width="94" height="20" x="46" y="437" style="fill:#007;stroke:black;"/>
   <text width="94" height="20" x="51" y="451" style="fill:#fff;" font-family="Arial" font-size="16px"> book_status</text>
   <rect width="94" height="20" x="46" y="457" style="fill:#aea;stroke:black;"/>
   <text width="94" height="20" x="51" y="471" style="fill:black;" font-family="Arial" font-size="16px">id</text>
   <rect width="94" height="20" x="46" y="477" style="fill:none;stroke:black;"/>
   <text width="94" height="20" x="51" y="491" style="fill:black;" font-family="Arial" font-size="16px">status</text>
   <rect width="121" height="20" x="491" y="17" style="fill:#007;stroke:black;"/>
   <text width="121" height="20" x="496" y="31" style="fill:#fff;" font-family="Arial" font-size="16px"> customer</text>
   <rect width="121" height="20" x="491" y="37" style="fill:none;stroke:black;"/>
   <text width="121" height="20" x="496" y="51" style="fill:black;" font-family="Arial" font-size="16px">register-id</text>
   <rect width="121" height="20" x="491" y="57" style="fill:#aea;stroke:black;"/>
   <text width="121" height="20" x="496" y="71" style="fill:black;" font-family="Arial" font-size="16px">customer-id</text>
   <rect width="121" height="20" x="491" y="77" style="fill:none;stroke:black;"/>
   <text width="121" height="20" x="496" y="91" style="fill:black;" font-family="Arial" font-size="16px">customer_name</text>
   <rect width="121" height="20" x="491" y="97" style="fill:none;stroke:black;"/>
   <text width="121" height="20" x="496" y="111" style="fill:black;" font-family="Arial" font-size="16px">contact</text>
   <rect width="121" height="20" x="491" y="117" style="fill:none;stroke:black;"/>
   <text width="121" height="20" x="496" y="131" style="fill:black;" font-family="Arial" font-size="16px">Address</text>
   <rect width="77" height="20" x="1089" y="28" style="fill:#007;stroke:black;"/>
   <text width="77" height="20" x="1094" y="42" style="fill:#fff;" font-family="Arial" font-size="16px"> genre</text>
   <rect width="77" height="20" x="1089" y="48" style="fill:#aea;stroke:black;"/>
   <text width="77" height="20" x="1094" y="62" style="fill:black;" font-family="Arial" font-size="16px">genere-id</text>
   <rect width="77" height="20" x="1089" y="68" style="fill:none;stroke:black;"/>
   <text width="77" height="20" x="1094" y="82" style="fill:black;" font-family="Arial" font-size="16px">type</text>
   <rect width="111" height="20" x="790" y="14" style="fill:#007;stroke:black;"/>
   <text width="111" height="20" x="795" y="28" style="fill:#fff;" font-family="Arial" font-size="16px"> movie</text>
   <rect width="111" height="20" x="790" y="34" style="fill:#aea;stroke:black;"/>
   <text width="111" height="20" x="795" y="48" style="fill:black;" font-family="Arial" font-size="16px">movie_id</text>
   <rect width="111" height="20" x="790" y="54" style="fill:none;stroke:black;"/>
   <text width="111" height="20" x="795" y="68" style="fill:black;" font-family="Arial" font-size="16px">theater-id</text>
   <rect width="111" height="20" x="790" y="74" style="fill:none;stroke:black;"/>
   <text width="111" height="20" x="795" y="88" style="fill:black;" font-family="Arial" font-size="16px">movieTitle</text>
   <rect width="111" height="20" x="790" y="94" style="fill:none;stroke:black;"/>
   <text width="111" height="20" x="795" y="108" style="fill:black;" font-family="Arial" font-size="16px">movie_pic</text>
   <rect width="111" height="20" x="790" y="114" style="fill:none;stroke:black;"/>
   <text width="111" height="20" x="795" y="128" style="fill:black;" font-family="Arial" font-size="16px">Movie_Trailers</text>
   <rect width="111" height="20" x="790" y="134" style="fill:none;stroke:black;"/>
   <text width="111" height="20" x="795" y="148" style="fill:black;" font-family="Arial" font-size="16px">genre_type</text>
   <rect width="111" height="20" x="790" y="154" style="fill:none;stroke:black;"/>
   <text width="111" height="20" x="795" y="168" style="fill:black;" font-family="Arial" font-size="16px">release</text>
   <rect width="111" height="20" x="790" y="174" style="fill:none;stroke:black;"/>
   <text width="111" height="20" x="795" y="188" style="fill:black;" font-family="Arial" font-size="16px">duration</text>
   <rect width="111" height="20" x="790" y="194" style="fill:none;stroke:black;"/>
   <text width="111" height="20" x="795" y="208" style="fill:black;" font-family="Arial" font-size="16px">description</text>
   <rect width="132" height="20" x="819" y="439" style="fill:#007;stroke:black;"/>
   <text width="132" height="20" x="824" y="453" style="fill:#fff;" font-family="Arial" font-size="16px"> payment</text>
   <rect width="132" height="20" x="819" y="459" style="fill:#aea;stroke:black;"/>
   <text width="132" height="20" x="824" y="473" style="fill:black;" font-family="Arial" font-size="16px">id</text>
   <rect width="132" height="20" x="819" y="479" style="fill:none;stroke:black;"/>
   <text width="132" height="20" x="824" y="493" style="fill:black;" font-family="Arial" font-size="16px">Amount</text>
   <rect width="132" height="20" x="819" y="499" style="fill:none;stroke:black;"/>
   <text width="132" height="20" x="824" y="513" style="fill:black;" font-family="Arial" font-size="16px">Timestamp</text>
   <rect width="132" height="20" x="819" y="519" style="fill:none;stroke:black;"/>
   <text width="132" height="20" x="824" y="533" style="fill:black;" font-family="Arial" font-size="16px">Discount</text>
   <rect width="132" height="20" x="819" y="539" style="fill:none;stroke:black;"/>
   <text width="132" height="20" x="824" y="553" style="fill:black;" font-family="Arial" font-size="16px">Payment_Method</text>
   <rect width="132" height="20" x="819" y="559" style="fill:none;stroke:black;"/>
   <text width="132" height="20" x="824" y="573" style="fill:black;" font-family="Arial" font-size="16px">booking-id</text>
   <rect width="132" height="20" x="819" y="579" style="fill:none;stroke:black;"/>
   <text width="132" height="20" x="824" y="593" style="fill:black;" font-family="Arial" font-size="16px">custome-id</text>
   <rect width="113" height="20" x="1046" y="312" style="fill:#007;stroke:black;"/>
   <text width="113" height="20" x="1051" y="326" style="fill:#fff;" font-family="Arial" font-size="16px"> popularmovies</text>
   <rect width="113" height="20" x="1046" y="332" style="fill:#aea;stroke:black;"/>
   <text width="113" height="20" x="1051" y="346" style="fill:black;" font-family="Arial" font-size="16px">MovieId</text>
   <rect width="113" height="20" x="1046" y="352" style="fill:none;stroke:black;"/>
   <text width="113" height="20" x="1051" y="366" style="fill:black;" font-family="Arial" font-size="16px">MovieName</text>
   <rect width="113" height="20" x="1046" y="372" style="fill:none;stroke:black;"/>
   <text width="113" height="20" x="1051" y="386" style="fill:black;" font-family="Arial" font-size="16px">MoviePic</text>
   <rect width="113" height="20" x="1046" y="392" style="fill:none;stroke:black;"/>
   <text width="113" height="20" x="1051" y="406" style="fill:black;" font-family="Arial" font-size="16px">MovieGenre</text>
   <rect width="113" height="20" x="1046" y="412" style="fill:none;stroke:black;"/>
   <text width="113" height="20" x="1051" y="426" style="fill:black;" font-family="Arial" font-size="16px">MovieTrailers</text>
   <rect width="113" height="20" x="1046" y="432" style="fill:none;stroke:black;"/>
   <text width="113" height="20" x="1051" y="446" style="fill:black;" font-family="Arial" font-size="16px">Release</text>
   <rect width="113" height="20" x="1046" y="452" style="fill:none;stroke:black;"/>
   <text width="113" height="20" x="1051" y="466" style="fill:black;" font-family="Arial" font-size="16px">Duration</text>
   <rect width="113" height="20" x="1046" y="472" style="fill:none;stroke:black;"/>
   <text width="113" height="20" x="1051" y="486" style="fill:black;" font-family="Arial" font-size="16px">Description</text>
   <rect width="89" height="20" x="267" y="27" style="fill:#007;stroke:black;"/>
   <text width="89" height="20" x="272" y="41" style="fill:#fff;" font-family="Arial" font-size="16px"> registration</text>
   <rect width="89" height="20" x="267" y="47" style="fill:#aea;stroke:black;"/>
   <text width="89" height="20" x="272" y="61" style="fill:black;" font-family="Arial" font-size="16px">register_id</text>
   <rect width="89" height="20" x="267" y="67" style="fill:none;stroke:black;"/>
   <text width="89" height="20" x="272" y="81" style="fill:black;" font-family="Arial" font-size="16px">full_name</text>
   <rect width="89" height="20" x="267" y="87" style="fill:none;stroke:black;"/>
   <text width="89" height="20" x="272" y="101" style="fill:black;" font-family="Arial" font-size="16px">email</text>
   <rect width="89" height="20" x="267" y="107" style="fill:none;stroke:black;"/>
   <text width="89" height="20" x="272" y="121" style="fill:black;" font-family="Arial" font-size="16px">Apassword</text>
   <rect width="89" height="20" x="267" y="127" style="fill:none;stroke:black;"/>
   <text width="89" height="20" x="272" y="141" style="fill:black;" font-family="Arial" font-size="16px">picture</text>
   <rect width="89" height="20" x="267" y="147" style="fill:none;stroke:black;"/>
   <text width="89" height="20" x="272" y="161" style="fill:black;" font-family="Arial" font-size="16px">Urole</text>
   <rect width="89" height="20" x="267" y="167" style="fill:none;stroke:black;"/>
   <text width="89" height="20" x="272" y="181" style="fill:black;" font-family="Arial" font-size="16px">status</text>
   <rect width="89" height="20" x="267" y="187" style="fill:none;stroke:black;"/>
   <text width="89" height="20" x="272" y="201" style="fill:black;" font-family="Arial" font-size="16px">code</text>
   <rect width="121" height="20" x="1051" y="156" style="fill:#007;stroke:black;"/>
   <text width="121" height="20" x="1056" y="170" style="fill:#fff;" font-family="Arial" font-size="16px"> reviews</text>
   <rect width="121" height="20" x="1051" y="176" style="fill:#aea;stroke:black;"/>
   <text width="121" height="20" x="1056" y="190" style="fill:black;" font-family="Arial" font-size="16px">ID</text>
   <rect width="121" height="20" x="1051" y="196" style="fill:none;stroke:black;"/>
   <text width="121" height="20" x="1056" y="210" style="fill:black;" font-family="Arial" font-size="16px">customer-name</text>
   <rect width="121" height="20" x="1051" y="216" style="fill:none;stroke:black;"/>
   <text width="121" height="20" x="1056" y="230" style="fill:black;" font-family="Arial" font-size="16px">message</text>
   <rect width="88" height="20" x="62" y="14" style="fill:#007;stroke:black;"/>
   <text width="88" height="20" x="67" y="28" style="fill:#fff;" font-family="Arial" font-size="16px"> role</text>
   <rect width="88" height="20" x="62" y="34" style="fill:#aea;stroke:black;"/>
   <text width="88" height="20" x="67" y="48" style="fill:black;" font-family="Arial" font-size="16px">Role_id</text>
   <rect width="88" height="20" x="62" y="54" style="fill:none;stroke:black;"/>
   <text width="88" height="20" x="67" y="68" style="fill:black;" font-family="Arial" font-size="16px">Role_name</text>
   <rect width="90" height="20" x="44" y="125" style="fill:#007;stroke:black;"/>
   <text width="90" height="20" x="49" y="139" style="fill:#fff;" font-family="Arial" font-size="16px"> seat</text>
   <rect width="90" height="20" x="44" y="145" style="fill:#aea;stroke:black;"/>
   <text width="90" height="20" x="49" y="159" style="fill:black;" font-family="Arial" font-size="16px">seat-id</text>
   <rect width="90" height="20" x="44" y="165" style="fill:none;stroke:black;"/>
   <text width="90" height="20" x="49" y="179" style="fill:black;" font-family="Arial" font-size="16px">theater-title</text>
   <rect width="90" height="20" x="44" y="185" style="fill:none;stroke:black;"/>
   <text width="90" height="20" x="49" y="199" style="fill:black;" font-family="Arial" font-size="16px">seat-type</text>
   <rect width="90" height="20" x="44" y="205" style="fill:none;stroke:black;"/>
   <text width="90" height="20" x="49" y="219" style="fill:black;" font-family="Arial" font-size="16px">No_of_seat</text>
   <rect width="119" height="20" x="44" y="294" style="fill:#007;stroke:black;"/>
   <text width="119" height="20" x="49" y="308" style="fill:#fff;" font-family="Arial" font-size="16px"> seat_categories</text>
   <rect width="119" height="20" x="44" y="314" style="fill:#aea;stroke:black;"/>
   <text width="119" height="20" x="49" y="328" style="fill:black;" font-family="Arial" font-size="16px">id</text>
   <rect width="119" height="20" x="44" y="334" style="fill:none;stroke:black;"/>
   <text width="119" height="20" x="49" y="348" style="fill:black;" font-family="Arial" font-size="16px">categories</text>
   <rect width="90" height="20" x="276" y="304" style="fill:#007;stroke:black;"/>
   <text width="90" height="20" x="281" y="318" style="fill:#fff;" font-family="Arial" font-size="16px"> theatre</text>
   <rect width="90" height="20" x="276" y="324" style="fill:#aea;stroke:black;"/>
   <text width="90" height="20" x="281" y="338" style="fill:black;" font-family="Arial" font-size="16px">theater_id</text>
   <rect width="90" height="20" x="276" y="344" style="fill:none;stroke:black;"/>
   <text width="90" height="20" x="281" y="358" style="fill:black;" font-family="Arial" font-size="16px">theater-title</text>
   <rect width="90" height="20" x="276" y="364" style="fill:none;stroke:black;"/>
   <text width="90" height="20" x="281" y="378" style="fill:black;" font-family="Arial" font-size="16px">country</text>
   <rect width="90" height="20" x="276" y="384" style="fill:none;stroke:black;"/>
   <text width="90" height="20" x="281" y="398" style="fill:black;" font-family="Arial" font-size="16px">capacity</text>
   <rect width="90" height="20" x="276" y="404" style="fill:none;stroke:black;"/>
   <text width="90" height="20" x="281" y="418" style="fill:black;" font-family="Arial" font-size="16px">Location</text>
   <rect width="90" height="20" x="276" y="424" style="fill:none;stroke:black;"/>
   <text width="90" height="20" x="281" y="438" style="fill:black;" font-family="Arial" font-size="16px">showdate</text>
   <rect width="90" height="20" x="276" y="444" style="fill:none;stroke:black;"/>
   <text width="90" height="20" x="281" y="458" style="fill:black;" font-family="Arial" font-size="16px">movieTitle</text>
   <rect width="90" height="20" x="276" y="464" style="fill:none;stroke:black;"/>
   <text width="90" height="20" x="281" y="478" style="fill:black;" font-family="Arial" font-size="16px">showtime</text>
   <rect width="90" height="20" x="276" y="484" style="fill:none;stroke:black;"/>
   <text width="90" height="20" x="281" y="498" style="fill:black;" font-family="Arial" font-size="16px">movie-pic</text>
   <rect width="90" height="20" x="276" y="504" style="fill:none;stroke:black;"/>
   <text width="90" height="20" x="281" y="518" style="fill:black;" font-family="Arial" font-size="16px">description</text>
   <rect width="83" height="20" x="810" y="296" style="fill:#007;stroke:black;"/>
   <text width="83" height="20" x="815" y="310" style="fill:#fff;" font-family="Arial" font-size="16px"> ticket</text>
   <rect width="83" height="20" x="810" y="316" style="fill:#aea;stroke:black;"/>
   <text width="83" height="20" x="815" y="330" style="fill:black;" font-family="Arial" font-size="16px">T-id</text>
   <rect width="83" height="20" x="810" y="336" style="fill:none;stroke:black;"/>
   <text width="83" height="20" x="815" y="350" style="fill:black;" font-family="Arial" font-size="16px">booking-id</text>
   <rect width="83" height="20" x="810" y="356" style="fill:none;stroke:black;"/>
   <text width="83" height="20" x="815" y="370" style="fill:black;" font-family="Arial" font-size="16px">ticket-type</text>
   <rect width="83" height="20" x="810" y="376" style="fill:none;stroke:black;"/>
   <text width="83" height="20" x="815" y="390" style="fill:black;" font-family="Arial" font-size="16px">price</text>
</svg>
